<svg width="68" height="65" viewBox="0 0 68 65" fill="none" xmlns="http://www.w3.org/2000/svg">
<g filter="url(#filter0_d_151_154)">
<path d="M63.985 37.8551L61.1255 18.6441C61.0792 13.0657 57.693 7.89303 51.8159 4.43765C46.9483 1.57605 40.6213 0 34.0001 0C27.3786 0 21.0515 1.57605 16.1838 4.43765C10.3069 7.89303 6.92054 13.0657 6.87437 18.6441L4.01488 37.8551C4.00504 37.9216 4 37.9887 4 38.056C4 43.7049 7.76452 48.936 14.3284 52.408C19.7022 55.2504 26.6883 56.8158 34.0001 56.8158C41.3116 56.8158 48.2978 55.2504 53.6716 52.408C60.2354 48.936 64 43.7049 64 38.056C63.9999 37.9888 63.9949 37.9216 63.985 37.8551ZM17.5668 6.78995C22.0215 4.17105 27.8576 2.72871 34.0001 2.72871C40.1424 2.72871 45.9785 4.17105 50.4331 6.78995C55.4956 9.76627 58.3993 14.1293 58.3993 18.7599C58.3993 23.3906 55.4957 27.7535 50.4332 30.7299C45.9785 33.3488 40.1424 34.7911 34.0001 34.7911C27.8577 34.7911 22.0215 33.3488 17.5669 30.7299C12.5044 27.7536 9.60073 23.3906 9.60073 18.7599C9.60073 14.1293 12.5043 9.76639 17.5668 6.78995ZM52.3956 49.996C47.4079 52.6342 40.875 54.0871 34.0001 54.0871C27.125 54.0871 20.592 52.6342 15.6044 49.996C10.0037 47.0333 6.77453 42.7218 6.72917 38.1535L8.60757 25.5342C10.1723 28.4612 12.7528 31.0645 16.1841 33.0819C21.0517 35.9434 27.3787 37.5195 34.0001 37.5195C40.6213 37.5195 46.9485 35.9434 51.816 33.0819C55.2473 31.0645 57.8279 28.461 59.3925 25.5342L61.2709 38.1535C61.2255 42.7219 57.9963 47.0335 52.3956 49.996Z" fill="#F1CDB3"/>
<path d="M34.0001 32.0618C43.3534 32.0618 51.6079 28.4427 54.5397 23.0569C55.29 21.6803 55.6707 20.2344 55.6707 18.7599C55.6707 15.0676 53.3194 11.652 49.0502 9.14217C45.0085 6.76631 39.6637 5.45791 34.0001 5.45791C28.3366 5.45791 22.9916 6.76643 18.9501 9.14229C14.6807 11.6521 12.3295 15.0676 12.3295 18.76C12.3295 20.2347 12.71 21.6804 13.4601 23.0563C16.3923 28.4427 24.6467 32.0618 34.0001 32.0618ZM34.0001 29.3332C26.1546 29.3332 19.0282 26.5145 16.2557 22.4006C19.0293 18.2891 26.1568 15.4732 34.0001 15.4732C41.8435 15.4732 48.9711 18.2891 51.7446 22.4008C48.9726 26.5145 41.8458 29.3332 34.0001 29.3332ZM15.0579 18.76C15.058 16.0744 16.9313 13.4942 20.3328 11.4945C23.9617 9.36131 28.8154 8.18651 34 8.18651C39.1845 8.18651 44.0384 9.36131 47.6672 11.4946C51.0687 13.4942 52.9421 16.0743 52.9421 18.76C52.9421 18.9993 52.9259 19.238 52.896 19.4761C49.1332 15.3699 41.9658 12.7446 34 12.7446C26.0342 12.7446 18.8669 15.37 15.1041 19.4761C15.0738 19.2386 15.0584 18.9994 15.0579 18.76Z" fill="#F1CDB3"/>
<path d="M34 39.7701C33.8155 39.7701 33.6329 39.8076 33.4633 39.8801C33.2936 39.9527 33.1405 40.059 33.0131 40.1924C32.1243 41.1235 29.225 44.3365 29.225 46.5916C29.225 49.2246 31.367 51.3666 34 51.3666C36.633 51.3666 38.775 49.2246 38.775 46.5916C38.775 44.3365 35.8756 41.1235 34.987 40.1924C34.8595 40.059 34.7064 39.9527 34.5368 39.8801C34.3671 39.8076 34.1845 39.7701 34 39.7701ZM34 48.6381C32.8716 48.6381 31.9536 47.7201 31.9536 46.5917C31.9536 45.986 32.9058 44.5224 34 43.1941C35.0943 44.5226 36.0465 45.986 36.0465 46.5917C36.0465 47.7201 35.1284 48.6381 34 48.6381Z" fill="#F1CDB3"/>
<path d="M27.8843 21.8977H27.4637C26.7102 21.8977 26.0994 22.5085 26.0994 23.262C26.0994 24.0155 26.7102 24.6263 27.4637 24.6263H27.8843C28.6378 24.6263 29.2486 24.0155 29.2486 23.262C29.2486 22.5085 28.6378 21.8977 27.8843 21.8977Z" fill="#F1CDB3"/>
<path d="M44.074 21.8977H34.342C33.5884 21.8977 32.9777 22.5085 32.9777 23.262C32.9777 24.0155 33.5884 24.6263 34.342 24.6263H44.074C44.8275 24.6263 45.4383 24.0155 45.4383 23.262C45.4383 22.5085 44.8275 21.8977 44.074 21.8977Z" fill="#F1CDB3"/>
</g>
<defs>
<filter id="filter0_d_151_154" x="0" y="0" width="68" height="64.8157" filterUnits="userSpaceOnUse" color-interpolation-filters="sRGB">
<feFlood flood-opacity="0" result="BackgroundImageFix"/>
<feColorMatrix in="SourceAlpha" type="matrix" values="0 0 0 0 0 0 0 0 0 0 0 0 0 0 0 0 0 0 127 0" result="hardAlpha"/>
<feOffset dy="4"/>
<feGaussianBlur stdDeviation="2"/>
<feComposite in2="hardAlpha" operator="out"/>
<feColorMatrix type="matrix" values="0 0 0 0 0 0 0 0 0 0 0 0 0 0 0 0 0 0 0.25 0"/>
<feBlend mode="normal" in2="BackgroundImageFix" result="effect1_dropShadow_151_154"/>
<feBlend mode="normal" in="SourceGraphic" in2="effect1_dropShadow_151_154" result="shape"/>
</filter>
</defs>
</svg>
